<svg version="1.1" id="Layer_1" xmlns="http://www.w3.org/2000/svg" xmlns:xlink="http://www.w3.org/1999/xlink" x="0px" y="0px"
	 width="100%" viewBox="0 0 496 496" enable-background="new 0 0 496 496" xml:space="preserve">
<path fill="#000000" opacity="1.000000" stroke="none" 
	d="
M114.957764,136.074127 
	C127.416763,109.922058 142.755081,85.981117 159.931686,63.190582 
	C164.327438,57.358120 165.148468,57.099449 170.869476,61.140137 
	C206.854935,86.556259 240.542725,114.353989 263.553741,152.871368 
	C270.268188,164.110428 274.913177,176.145004 276.795837,189.222519 
	C277.282135,192.600403 276.387909,193.831635 273.288788,195.007797 
	C252.031830,203.074982 234.553894,215.690750 224.736008,236.981827 
	C219.751984,247.790222 219.453598,259.562744 218.336624,271.142212 
	C218.243683,272.105865 218.082260,273.062866 217.945786,274.073883 
	C214.979218,274.125488 214.766281,271.685059 213.953018,270.092346 
	C208.166473,258.759949 204.592590,246.583984 201.090866,234.445358 
	C193.112518,206.788712 186.288910,178.830536 180.302719,150.671844 
	C179.097870,145.004242 177.890228,139.337219 176.564743,133.110336 
	C173.559357,140.235992 175.878281,196.208954 178.696045,220.212753 
	C182.065445,248.915771 186.029831,277.494720 192.132370,305.641418 
	C189.492142,306.874756 187.526825,306.415771 185.657532,305.784241 
	C158.453384,296.593384 134.366287,282.715424 116.782295,259.312927 
	C101.025482,238.342148 96.363365,214.435410 99.347305,188.890091 
	C101.485779,170.582764 107.267319,153.206451 114.957764,136.074127 
z"/>
<path fill="#000000" opacity="1.000000" stroke="none" 
	d="
M294.988068,272.022461 
	C277.548737,284.906067 260.558472,297.748077 246.173233,313.681091 
	C241.367249,319.004150 239.779343,318.722046 237.918594,311.778168 
	C231.410645,287.492035 229.938812,263.441406 243.515640,240.746323 
	C252.888489,225.078629 267.559998,216.242142 284.220551,210.162643 
	C306.340302,202.091064 329.400116,199.178391 352.724976,197.966599 
	C358.179657,197.683212 363.686829,198.503204 369.173767,198.713608 
	C372.581665,198.844284 373.184296,201.031784 373.276550,203.785614 
	C373.851196,220.941757 373.632660,238.016434 370.264862,254.975891 
	C366.881378,272.014587 363.071899,288.876129 353.826630,303.872009 
	C340.727600,325.118805 321.958435,336.847992 296.622589,337.318695 
	C286.427216,337.508087 276.367828,336.777466 266.362793,334.603943 
	C262.370026,333.736511 261.776154,332.190308 263.278137,328.811859 
	C268.871674,316.230194 276.942261,305.209381 284.977844,294.163696 
	C292.438171,283.908691 300.561768,274.222321 309.672028,265.380066 
	C310.236847,264.831848 310.610962,264.087158 310.790100,263.028564 
	C304.928955,264.766724 300.291565,268.634613 294.988068,272.022461 
z"/>
<path fill="#000000" opacity="1.000000" stroke="none" 
	d="
M201.317047,392.772400 
	C185.621765,378.227905 187.227798,357.508057 204.550674,347.212677 
	C215.856323,340.493500 231.139633,343.194489 239.833817,353.448181 
	C248.014816,363.096619 248.379959,378.075806 240.666168,387.593231 
	C231.486450,398.919342 216.917145,402.004150 204.958862,395.137573 
	C203.808548,394.477051 202.716339,393.715363 201.317047,392.772400 
z"/>
</svg>